<?xml version="1.0" encoding="UTF-8" standalone="no"?>
<!-- Generator: Adobe Illustrator 14.0.0, SVG Export Plug-In . SVG Version: 6.00 Build 43363)  -->

<svg
   xmlns:dc="http://purl.org/dc/elements/1.1/"
   xmlns:cc="http://creativecommons.org/ns#"
   xmlns:rdf="http://www.w3.org/1999/02/22-rdf-syntax-ns#"
   xmlns:svg="http://www.w3.org/2000/svg"
   xmlns="http://www.w3.org/2000/svg"
   xmlns:sodipodi="http://sodipodi.sourceforge.net/DTD/sodipodi-0.dtd"
   xmlns:inkscape="http://www.inkscape.org/namespaces/inkscape"
   version="1.2"
   x="0px"
   y="0px"
   width="42.25"
   height="62.625"
   viewBox="0 0 42.249998 62.624999"
   xml:space="preserve"
   id="svg2936"
   sodipodi:docname="dcdc step down.svg"
   inkscape:version="0.92.0 r15299"><metadata
     id="metadata2942"><rdf:RDF><cc:Work
         rdf:about=""><dc:format>image/svg+xml</dc:format><dc:type
           rdf:resource="http://purl.org/dc/dcmitype/StillImage" /><dc:title /></cc:Work></rdf:RDF></metadata><defs
     id="defs2940" /><sodipodi:namedview
     pagecolor="#ffffff"
     bordercolor="#666666"
     borderopacity="1"
     objecttolerance="10"
     gridtolerance="10"
     guidetolerance="10"
     inkscape:pageopacity="0"
     inkscape:pageshadow="2"
     inkscape:window-width="1920"
     inkscape:window-height="1018"
     id="namedview2938"
     showgrid="false"
     inkscape:zoom="8"
     inkscape:cx="22.281373"
     inkscape:cy="25.428111"
     inkscape:window-x="-8"
     inkscape:window-y="-8"
     inkscape:window-maximized="1"
     inkscape:current-layer="layer1"
     inkscape:object-paths="true"
     inkscape:snap-intersection-paths="true"
     inkscape:snap-smooth-nodes="true"
     inkscape:snap-midpoints="true"
     inkscape:snap-object-midpoints="true"
     inkscape:snap-center="true"
     inkscape:snap-text-baseline="false"
     inkscape:snap-others="true"
     inkscape:object-nodes="true"
     inkscape:snap-nodes="true"
     inkscape:showpageshadow="false"
     showborder="false"
     showguides="true"
     inkscape:guide-bbox="true"
     fit-margin-top="0"
     fit-margin-left="0"
     fit-margin-right="0"
     fit-margin-bottom="0" /><g
     inkscape:groupmode="layer"
     id="layer4"
     inkscape:label="bottom"
     transform="translate(-348.10464,-455.59667)"
     style="display:inline"><path
       style="fill:#008033;fill-opacity:1;stroke:none;stroke-opacity:1"
       d="M 77.625,1.1464844 V 63.771484 h 42.25 V 1.1464844 Z m 3.03125,1.375 a 1.656253,1.656253 0 0 1 1.65625,1.65625 1.656253,1.656253 0 0 1 -1.65625,1.65625 A 1.656253,1.656253 0 0 1 79,4.1777344 a 1.656253,1.656253 0 0 1 1.65625,-1.65625 z m 36.1875,0 a 1.656253,1.656253 0 0 1 1.65625,1.65625 1.656253,1.656253 0 0 1 -1.65625,1.65625 1.656253,1.656253 0 0 1 -1.65625,-1.65625 1.656253,1.656253 0 0 1 1.65625,-1.65625 z M 80.65625,59.083984 a 1.656253,1.656253 0 0 1 1.65625,1.65625 1.656253,1.656253 0 0 1 -1.65625,1.65625 A 1.656253,1.656253 0 0 1 79,60.740234 a 1.656253,1.656253 0 0 1 1.65625,-1.65625 z m 36.1875,0 a 1.656253,1.656253 0 0 1 1.65625,1.65625 1.656253,1.656253 0 0 1 -1.65625,1.65625 1.656253,1.656253 0 0 1 -1.65625,-1.65625 1.656253,1.656253 0 0 1 1.65625,-1.65625 z"
       transform="translate(270.47964,454.45019)"
       id="rect67"
       inkscape:connector-curvature="0" /></g><g
     inkscape:groupmode="layer"
     id="layer1"
     inkscape:label="pins"
     style="display:inline"
     transform="translate(-348.10464,-455.59667)"><path
       style="fill:#9a916c;fill-opacity:1;stroke:none;stroke-opacity:1"
       d="m 77.625,1.1464844 v 6.0625 h 6.0625 v -6.0625 z m 36.1875,0 v 6.0625 h 6.0625 v -6.0625 z m -33.15625,1.375 a 1.656253,1.656253 0 0 1 1.65625,1.65625 1.656253,1.656253 0 0 1 -1.65625,1.65625 A 1.656253,1.656253 0 0 1 79,4.1777344 a 1.656253,1.656253 0 0 1 1.65625,-1.65625 z m 36.1875,0 a 1.656253,1.656253 0 0 1 1.65625,1.65625 1.656253,1.656253 0 0 1 -1.65625,1.65625 1.656253,1.656253 0 0 1 -1.65625,-1.65625 1.656253,1.656253 0 0 1 1.65625,-1.65625 z M 77.625,57.708984 v 6.0625 h 6.0625 v -6.0625 z m 36.1875,0 v 6.0625 h 6.0625 v -6.0625 z m -33.15625,1.375 a 1.656253,1.656253 0 0 1 1.65625,1.65625 1.656253,1.656253 0 0 1 -1.65625,1.65625 A 1.656253,1.656253 0 0 1 79,60.740234 a 1.656253,1.656253 0 0 1 1.65625,-1.65625 z m 36.1875,0 a 1.656253,1.656253 0 0 1 1.65625,1.65625 1.656253,1.656253 0 0 1 -1.65625,1.65625 1.656253,1.656253 0 0 1 -1.65625,-1.65625 1.656253,1.656253 0 0 1 1.65625,-1.65625 z"
       transform="translate(270.47964,454.45019)"
       id="rect69"
       inkscape:connector-curvature="0" /><rect
       style="display:inline;fill:#cccccc;fill-opacity:1;stroke:none;stroke-opacity:1"
       id="rect182"
       width="26.604893"
       height="26.604893"
       x="349.6756"
       y="485.31088"
       ry="4" /><rect
       style="display:inline;fill:#333333;fill-opacity:1;stroke:none;stroke-opacity:1"
       id="rect186"
       width="14.142151"
       height="17.987022"
       x="358.69122"
       y="466.39578" /><rect
       style="display:inline;fill:#aa8800;fill-opacity:1;stroke:none;stroke-opacity:1"
       id="rect188"
       width="8.6620579"
       height="5.0242715"
       x="365.36453"
       y="513.19739" /><rect
       style="display:inline;fill:#f2f2f2;fill-opacity:1;stroke:none;stroke-opacity:1"
       id="rect190"
       width="1.3848923"
       height="5.0242863"
       x="363.97964"
       y="513.19739" /><rect
       style="display:inline;fill:#f2f2f2;fill-opacity:1;stroke:none;stroke-opacity:1"
       id="rect190-2"
       width="1.3848923"
       height="5.0242863"
       x="374.02658"
       y="513.19739" /><rect
       style="display:inline;fill:#aa8800;fill-opacity:1;stroke:none;stroke-opacity:1"
       id="rect188-1"
       width="8.6620579"
       height="5.0242715"
       x="365.36453"
       y="455.59668" /><rect
       style="display:inline;fill:#f2f2f2;fill-opacity:1;stroke:none;stroke-opacity:1"
       id="rect190-0"
       width="1.3848923"
       height="5.0242863"
       x="363.97964"
       y="455.59668" /><rect
       style="display:inline;fill:#f2f2f2;fill-opacity:1;stroke:none;stroke-opacity:1"
       id="rect190-2-2"
       width="1.3848923"
       height="5.0242863"
       x="374.02658"
       y="455.59668" /><rect
       style="display:inline;fill:#aa8800;fill-opacity:1;stroke:none;stroke-width:0.56222922;stroke-opacity:1"
       id="rect188-2"
       width="4.3422928"
       height="3.1681216"
       x="381.99802"
       y="464.59073" /><rect
       style="display:inline;fill:#f2f2f2;fill-opacity:1;stroke:none;stroke-width:0.56222922;stroke-opacity:1"
       id="rect190-8"
       width="0.69424707"
       height="3.1681309"
       x="381.30377"
       y="464.59073" /><rect
       style="display:inline;fill:#f2f2f2;fill-opacity:1;stroke:none;stroke-width:0.56222922;stroke-opacity:1"
       id="rect190-2-6"
       width="0.69424707"
       height="3.1681309"
       x="386.3403"
       y="464.59073" /><rect
       style="display:inline;fill:#000000;fill-opacity:1;stroke:none;stroke-width:0.56222922;stroke-opacity:1"
       id="rect188-2-3"
       width="4.3422928"
       height="3.1681216"
       x="381.99802"
       y="469.54047" /><rect
       style="display:inline;fill:#f2f2f2;fill-opacity:1;stroke:none;stroke-width:0.56222922;stroke-opacity:1"
       id="rect190-8-4"
       width="0.69424707"
       height="3.1681309"
       x="381.30377"
       y="469.54047" /><rect
       style="display:inline;fill:#f2f2f2;fill-opacity:1;stroke:none;stroke-width:0.56222922;stroke-opacity:1"
       id="rect190-2-6-1"
       width="0.69424707"
       height="3.1681309"
       x="386.3403"
       y="469.54047" /><rect
       style="display:inline;fill:#aa8800;fill-opacity:1;stroke:none;stroke-width:0.56222922;stroke-opacity:1"
       id="rect188-2-2"
       width="4.3422928"
       height="3.1681216"
       x="381.99802"
       y="474.18085" /><rect
       style="display:inline;fill:#f2f2f2;fill-opacity:1;stroke:none;stroke-width:0.56222922;stroke-opacity:1"
       id="rect190-8-6"
       width="0.69424707"
       height="3.1681309"
       x="381.30377"
       y="474.18085" /><rect
       style="display:inline;fill:#f2f2f2;fill-opacity:1;stroke:none;stroke-width:0.56222922;stroke-opacity:1"
       id="rect190-2-6-0"
       width="0.69424707"
       height="3.1681309"
       x="386.3403"
       y="474.18085" /><rect
       style="display:inline;fill:#000000;fill-opacity:1;stroke:none;stroke-width:0.56222922;stroke-opacity:1"
       id="rect188-2-6"
       width="4.3422928"
       height="3.1681216"
       x="381.99802"
       y="478.90964" /><rect
       style="display:inline;fill:#f2f2f2;fill-opacity:1;stroke:none;stroke-width:0.56222922;stroke-opacity:1"
       id="rect190-8-3"
       width="0.69424707"
       height="3.1681309"
       x="381.30377"
       y="478.90964" /><rect
       style="display:inline;fill:#f2f2f2;fill-opacity:1;stroke:none;stroke-width:0.56222922;stroke-opacity:1"
       id="rect190-2-6-4"
       width="0.69424707"
       height="3.1681309"
       x="386.3403"
       y="478.90964" /><rect
       style="display:inline;fill:#aa8800;fill-opacity:1;stroke:none;stroke-width:0.56222922;stroke-opacity:1"
       id="rect188-2-7"
       width="4.3422928"
       height="3.1681216"
       x="357.58072"
       y="462.51361" /><rect
       style="display:inline;fill:#f2f2f2;fill-opacity:1;stroke:none;stroke-width:0.56222922;stroke-opacity:1"
       id="rect190-8-66"
       width="0.69424707"
       height="3.1681309"
       x="356.88647"
       y="462.51361" /><rect
       style="display:inline;fill:#f2f2f2;fill-opacity:1;stroke:none;stroke-width:0.56222922;stroke-opacity:1"
       id="rect190-2-6-2"
       width="0.69424707"
       height="3.1681309"
       x="361.923"
       y="462.51361" /><rect
       style="display:inline;fill:#000000;fill-opacity:1;stroke:none;stroke-width:0.56222922;stroke-opacity:1"
       id="rect188-2-9"
       width="4.3422928"
       height="3.1681216"
       x="370.30865"
       y="462.51361" /><rect
       style="display:inline;fill:#f2f2f2;fill-opacity:1;stroke:none;stroke-width:0.56222922;stroke-opacity:1"
       id="rect190-8-0"
       width="0.69424707"
       height="3.1681309"
       x="369.61441"
       y="462.51361" /><rect
       style="display:inline;fill:#f2f2f2;fill-opacity:1;stroke:none;stroke-width:0.56222922;stroke-opacity:1"
       id="rect190-2-6-6"
       width="0.69424707"
       height="3.1681309"
       x="374.65094"
       y="462.51361" /><rect
       style="display:inline;fill:#f2f2f2;fill-opacity:1;stroke:none;stroke-opacity:1"
       id="rect325"
       width="5.4615831"
       height="2.125"
       x="353.22964"
       y="467.50293" /><rect
       style="display:inline;fill:#f2f2f2;fill-opacity:1;stroke:none;stroke-opacity:1"
       id="rect325-5"
       width="5.4615831"
       height="2.125"
       x="372.83337"
       y="467.50293" /><rect
       style="display:inline;fill:#f2f2f2;fill-opacity:1;stroke:none;stroke-opacity:1"
       id="rect325-9"
       width="5.4615831"
       height="2.125"
       x="353.22964"
       y="472.12793" /><rect
       style="display:inline;fill:#f2f2f2;fill-opacity:1;stroke:none;stroke-opacity:1"
       id="rect325-5-9"
       width="5.4615831"
       height="2.125"
       x="372.83337"
       y="472.12793" /><rect
       style="display:inline;fill:#f2f2f2;fill-opacity:1;stroke:none;stroke-opacity:1"
       id="rect325-2"
       width="5.4615831"
       height="2.125"
       x="353.22964"
       y="477.09668" /><rect
       style="display:inline;fill:#f2f2f2;fill-opacity:1;stroke:none;stroke-opacity:1"
       id="rect325-9-4"
       width="5.4615831"
       height="2.125"
       x="353.22964"
       y="481.72168" /><rect
       style="display:inline;fill:#f2f2f2;fill-opacity:1;stroke:none;stroke-opacity:1"
       id="rect325-5-9-7"
       width="5.4615831"
       height="2.125"
       x="372.83337"
       y="481.72168" /><rect
       style="display:inline;fill:#f2f2f2;fill-opacity:1;stroke:none;stroke-opacity:1"
       id="rect325-2-8"
       width="5.4615831"
       height="2.125"
       x="372.83337"
       y="477.09668" /><rect
       style="fill:#cccccc;fill-opacity:1;stroke:none;stroke-opacity:1"
       id="rect4112"
       width="12.08541"
       height="12.08541"
       x="378.26923"
       y="496.27103" /><circle
       style="fill:#4d4d4d;fill-opacity:1;stroke:none;stroke-opacity:1"
       id="path4118"
       cx="384.31195"
       cy="502.31372"
       r="5.712945" /><circle
       style="fill:#808080;fill-opacity:1;stroke:none;stroke-opacity:1"
       id="path4122"
       cx="384.31195"
       cy="502.31372"
       r="4.4176893" /><rect
       transform="translate(268.60324,454.86035)"
       style="display:none;opacity:0.56199999;fill:#333333;fill-opacity:1;stroke:none;stroke-width:0.91580844;stroke-opacity:1"
       id="rect4142"
       width="6.7379947"
       height="2.0973976"
       x="112.32407"
       y="46.389057" /><path
       style="display:inline;opacity:0.56199999;fill:#333333;fill-opacity:1;stroke:none;stroke-opacity:1"
       d="m 112.81641,44.462891 v 2.3125 h -2.3125 v 2.105468 h 2.3125 v 2.3125 h 2.10547 v -2.3125 h 2.3125 v -2.105468 h -2.3125 v -2.3125 z"
       id="rect4145"
       transform="translate(270.47964,454.45019)"
       inkscape:connector-curvature="0" /><circle
       style="fill:#ffffff;fill-opacity:1;stroke:none;stroke-width:0.7323944;stroke-opacity:1"
       id="path58"
       cx="387.35175"
       cy="458.65057"
       r="1.1490486" /><circle
       style="display:inline;fill:#ffffff;fill-opacity:1;stroke:none;stroke-width:0.7323944;stroke-opacity:1"
       id="path58-2"
       cx="351.11252"
       cy="458.65057"
       r="1.1490486" /><circle
       style="display:inline;fill:#ffffff;fill-opacity:1;stroke:none;stroke-width:0.7323944;stroke-opacity:1"
       id="path58-0"
       cx="387.35175"
       cy="515.1543"
       r="1.1490486" /><circle
       style="display:inline;fill:#ffffff;fill-opacity:1;stroke:none;stroke-width:0.7323944;stroke-opacity:1"
       id="path58-2-1"
       cx="351.11252"
       cy="515.1543"
       r="1.1490486" /></g><g
     inkscape:groupmode="layer"
     id="layer6"
     inkscape:label="text"
     transform="translate(-348.10464,-455.59667)"
     style="display:none;opacity:1"><text
       xml:space="preserve"
       style="font-style:normal;font-variant:normal;font-weight:normal;font-stretch:normal;font-size:3.52639985px;line-height:25px;font-family:OCRA;-inkscape-font-specification:OCRA;font-variant-ligatures:normal;font-variant-caps:normal;font-variant-numeric:normal;font-feature-settings:normal;text-align:start;letter-spacing:0px;word-spacing:0px;writing-mode:lr-tb;text-anchor:start;fill:#000000;fill-opacity:1;stroke:none"
       x="455.875"
       y="412.76501"
       id="text6583"><tspan
         sodipodi:role="line"
         id="tspan6581"
         x="455.875"
         y="426.32294" /></text>
<text
       xml:space="preserve"
       style="font-style:normal;font-variant:normal;font-weight:bold;font-stretch:normal;font-size:5.56988144px;line-height:36.07143784px;font-family:'Droid Sans';-inkscape-font-specification:'Droid Sans, Bold';font-variant-ligatures:normal;font-variant-caps:normal;font-variant-numeric:normal;font-feature-settings:normal;text-align:start;letter-spacing:0px;word-spacing:0px;writing-mode:lr-tb;text-anchor:start;fill:#000000;fill-opacity:1;stroke:none;stroke-width:1.44285727"
       x="419.29886"
       y="455.0098"
       id="text6380-7-6-77-3-9"><tspan
         sodipodi:role="line"
         id="tspan6378-1-0-6-3-2"
         x="419.29886"
         y="455.0098"
         style="font-style:normal;font-variant:normal;font-weight:bold;font-stretch:normal;font-size:5.56988144px;font-family:'Droid Sans';-inkscape-font-specification:'Droid Sans, Bold';font-variant-ligatures:normal;font-variant-caps:normal;font-variant-numeric:normal;font-feature-settings:normal;text-align:start;writing-mode:lr-tb;text-anchor:start;fill:#ffffff;stroke-width:1.44285727">GND</tspan></text>
<text
       xml:space="preserve"
       style="font-style:normal;font-variant:normal;font-weight:bold;font-stretch:normal;font-size:5.56988144px;line-height:36.07143784px;font-family:'Droid Sans';-inkscape-font-specification:'Droid Sans, Bold';font-variant-ligatures:normal;font-variant-caps:normal;font-variant-numeric:normal;font-feature-settings:normal;text-align:start;letter-spacing:0px;word-spacing:0px;writing-mode:lr-tb;text-anchor:start;display:inline;opacity:1;fill:#000000;fill-opacity:1;stroke:none;stroke-width:1.44285727"
       x="420.72565"
       y="480.01862"
       id="text6380-7-6-77-3-9-0"><tspan
         sodipodi:role="line"
         id="tspan6378-1-0-6-3-2-1"
         x="420.72565"
         y="480.01862"
         style="font-style:normal;font-variant:normal;font-weight:bold;font-stretch:normal;font-size:5.56988144px;font-family:'Droid Sans';-inkscape-font-specification:'Droid Sans, Bold';font-variant-ligatures:normal;font-variant-caps:normal;font-variant-numeric:normal;font-feature-settings:normal;text-align:start;writing-mode:lr-tb;text-anchor:start;fill:#ffffff;stroke-width:1.44285727">5V</tspan></text>
</g></svg>