<?xml version="1.0" encoding="UTF-8" standalone="no"?>
<!-- Generator: Adobe Illustrator 14.0.0, SVG Export Plug-In . SVG Version: 6.00 Build 43363)  -->

<svg
   xmlns:dc="http://purl.org/dc/elements/1.1/"
   xmlns:cc="http://creativecommons.org/ns#"
   xmlns:rdf="http://www.w3.org/1999/02/22-rdf-syntax-ns#"
   xmlns:svg="http://www.w3.org/2000/svg"
   xmlns="http://www.w3.org/2000/svg"
   xmlns:sodipodi="http://sodipodi.sourceforge.net/DTD/sodipodi-0.dtd"
   xmlns:inkscape="http://www.inkscape.org/namespaces/inkscape"
   version="1.2"
   x="0px"
   y="0px"
   width="89.318359"
   height="121.19336"
   viewBox="0 0 89.318356 121.19336"
   xml:space="preserve"
   id="svg2936"
   sodipodi:docname="joystic.svg"
   inkscape:version="0.92.0 r15299"><metadata
     id="metadata2942"><rdf:RDF><cc:Work
         rdf:about=""><dc:format>image/svg+xml</dc:format><dc:type
           rdf:resource="http://purl.org/dc/dcmitype/StillImage" /><dc:title /></cc:Work></rdf:RDF></metadata><defs
     id="defs2940" /><sodipodi:namedview
     pagecolor="#ffffff"
     bordercolor="#666666"
     borderopacity="1"
     objecttolerance="10"
     gridtolerance="10"
     guidetolerance="10"
     inkscape:pageopacity="0"
     inkscape:pageshadow="2"
     inkscape:window-width="1920"
     inkscape:window-height="1018"
     id="namedview2938"
     showgrid="false"
     inkscape:zoom="4"
     inkscape:cx="98.022235"
     inkscape:cy="78.802606"
     inkscape:window-x="-8"
     inkscape:window-y="-8"
     inkscape:window-maximized="1"
     inkscape:current-layer="layer1"
     inkscape:object-paths="true"
     inkscape:snap-intersection-paths="true"
     inkscape:snap-smooth-nodes="true"
     inkscape:snap-midpoints="true"
     inkscape:snap-object-midpoints="true"
     inkscape:snap-center="true"
     inkscape:snap-text-baseline="false"
     inkscape:snap-others="true"
     inkscape:object-nodes="true"
     inkscape:snap-nodes="true"
     inkscape:showpageshadow="false"
     showborder="false"
     showguides="true"
     inkscape:guide-bbox="true"
     fit-margin-top="0"
     fit-margin-left="0"
     fit-margin-right="0"
     fit-margin-bottom="0" /><g
     inkscape:groupmode="layer"
     id="layer3"
     inkscape:label="bottom 1"><path
       style="fill:#1a1a1a;fill-opacity:1;stroke:none;stroke-opacity:1"
       d="M 0,0 V 121.19336 H 89.318359 V 0 Z m 54.464844,2.8789062 a 1.9560459,1.9560459 0 0 1 1.957031,1.9550782 1.9560459,1.9560459 0 0 1 -1.957031,1.9570312 1.9560459,1.9560459 0 0 1 -1.955078,-1.9570312 1.9560459,1.9560459 0 0 1 1.955078,-1.9550782 z m 9.09375,0.00781 a 1.9560459,1.9560459 0 0 1 1.955078,1.9550781 1.9560459,1.9560459 0 0 1 -1.955078,1.9570312 1.9560459,1.9560459 0 0 1 -1.957032,-1.9570312 1.9560459,1.9560459 0 0 1 1.957032,-1.9550781 z m -36.242188,0.00195 a 1.9560459,1.9560459 0 0 1 1.955078,1.9570312 1.9560459,1.9560459 0 0 1 -1.955078,1.9550781 1.9560459,1.9560459 0 0 1 -1.957031,-1.9550781 1.9560459,1.9560459 0 0 1 1.957031,-1.9570312 z m 9.109375,0 A 1.9560459,1.9560459 0 0 1 38.380859,4.8457031 1.9560459,1.9560459 0 0 1 36.425781,6.8007812 1.9560459,1.9560459 0 0 1 34.46875,4.8457031 1.9560459,1.9560459 0 0 1 36.425781,2.8886719 Z m 9.091797,0.00781 A 1.9560459,1.9560459 0 0 1 47.474609,4.8535156 1.9560459,1.9560459 0 0 1 45.517578,6.8085938 1.9560459,1.9560459 0 0 1 43.5625,4.8535156 1.9560459,1.9560459 0 0 1 45.517578,2.8964844 Z M 8.4003906,3.8730469 A 4.7865548,4.7865548 0 0 1 13.1875,8.6601562 4.7865548,4.7865548 0 0 1 8.4003906,13.445312 4.7865548,4.7865548 0 0 1 3.6152344,8.6601562 4.7865548,4.7865548 0 0 1 8.4003906,3.8730469 Z m 72.5683594,0 A 4.7865548,4.7865548 0 0 1 85.753906,8.6601562 4.7865548,4.7865548 0 0 1 80.96875,13.445312 4.7865548,4.7865548 0 0 1 76.181641,8.6601562 4.7865548,4.7865548 0 0 1 80.96875,3.8730469 Z M 8.4003906,107.64062 a 4.7865548,4.7865548 0 0 1 4.7871094,4.78711 4.7865548,4.7865548 0 0 1 -4.7871094,4.78516 4.7865548,4.7865548 0 0 1 -4.7851562,-4.78516 4.7865548,4.7865548 0 0 1 4.7851562,-4.78711 z m 72.6562504,0 a 4.7865548,4.7865548 0 0 1 4.785156,4.78711 4.7865548,4.7865548 0 0 1 -4.785156,4.78516 4.7865548,4.7865548 0 0 1 -4.78711,-4.78516 4.7865548,4.7865548 0 0 1 4.78711,-4.78711 z"
       id="rect68"
       inkscape:connector-curvature="0" /><path
       style="display:inline;fill:#9a916c;fill-opacity:1;stroke:none;stroke-width:1.26546705;stroke-opacity:1"
       d="m 81.05615,106.39291 a 6.034955,6.034955 0 0 0 -6.03515,6.03321 6.034955,6.034955 0 0 0 6.03515,6.03515 6.034955,6.034955 0 0 0 6.035161,-6.03515 6.034955,6.034955 0 0 0 -6.035161,-6.03321 z m 0,1.25391 a 4.7807221,4.7807221 0 0 1 4.779301,4.7793 4.7807221,4.7807221 0 0 1 -4.779301,4.78125 4.7807221,4.7807221 0 0 1 -4.78125,-4.78125 4.7807221,4.7807221 0 0 1 4.78125,-4.7793 z"
       id="path7424-8-2-9-6-1-3"
       inkscape:connector-curvature="0" /><circle
       style="fill:#000000;fill-opacity:1;stroke:none;stroke-width:0.91577244;stroke-opacity:1"
       id="path539"
       cx="44.65918"
       cy="60.59668"
       r="41.323486" /><circle
       style="fill:#666666;fill-opacity:1;stroke:none;stroke-opacity:1"
       id="path541"
       cx="44.65918"
       cy="60.59668"
       r="32.387863" /><circle
       style="fill:#1a1a1a;fill-opacity:1;stroke:none;stroke-width:0.89110309;stroke-opacity:1"
       id="path543"
       cx="44.65918"
       cy="60.59668"
       r="26.038137" /></g><g
     inkscape:groupmode="layer"
     id="layer1"
     inkscape:label="pins"
     style="display:inline"
     transform="translate(-270.47964,-454.45019)"><path
       style="fill:#9a916c;fill-opacity:1;stroke:none;stroke-width:1.26546705;stroke-opacity:1"
       d="m 278.88058,457.07519 a 6.034955,6.034955 0 0 0 -6.03515,6.03321 6.034955,6.034955 0 0 0 6.03515,6.03515 6.034955,6.034955 0 0 0 6.03516,-6.03515 6.034955,6.034955 0 0 0 -6.03516,-6.03321 z m 0,1.25391 a 4.7807221,4.7807221 0 0 1 4.7793,4.7793 4.7807221,4.7807221 0 0 1 -4.7793,4.78125 4.7807221,4.7807221 0 0 1 -4.78125,-4.78125 4.7807221,4.7807221 0 0 1 4.78125,-4.7793 z"
       id="path7424-8-2-9"
       inkscape:connector-curvature="0" /><path
       style="display:inline;fill:#9a916c;fill-opacity:1;stroke:none;stroke-width:1.26546705;stroke-opacity:1"
       d="m 351.4474,457.07518 a 6.034955,6.034955 0 0 0 -6.03515,6.03321 6.034955,6.034955 0 0 0 6.03515,6.03515 6.034955,6.034955 0 0 0 6.03516,-6.03515 6.034955,6.034955 0 0 0 -6.03516,-6.03321 z m 0,1.25391 a 4.7807221,4.7807221 0 0 1 4.7793,4.7793 4.7807221,4.7807221 0 0 1 -4.7793,4.78125 4.7807221,4.7807221 0 0 1 -4.78125,-4.78125 4.7807221,4.7807221 0 0 1 4.78125,-4.7793 z"
       id="path7424-8-2-9-6"
       inkscape:connector-curvature="0" /><path
       style="display:inline;fill:#9a916c;fill-opacity:1;stroke:none;stroke-width:0.6260401;stroke-opacity:1"
       d="m 297.79565,456.3103 a 2.9855571,2.9855571 0 0 0 -2.98633,2.98438 2.9855571,2.9855571 0 0 0 2.98633,2.98632 2.9855571,2.9855571 0 0 0 2.98633,-2.98632 2.9855571,2.9855571 0 0 0 -2.98633,-2.98438 z m 0,1.0293 a 1.954616,1.954616 0 0 1 1.95508,1.95508 1.954616,1.954616 0 0 1 -1.95508,1.95507 1.954616,1.954616 0 0 1 -1.95508,-1.95507 1.954616,1.954616 0 0 1 1.95508,-1.95508 z"
       id="path7424-8-2-9-4-64-1"
       inkscape:connector-curvature="0" /><path
       style="display:inline;fill:#9a916c;fill-opacity:1;stroke:none;stroke-width:0.6260401;stroke-opacity:1"
       d="m 306.9049,456.31033 a 2.9855571,2.9855571 0 0 0 -2.98633,2.98438 2.9855571,2.9855571 0 0 0 2.98633,2.98632 2.9855571,2.9855571 0 0 0 2.98633,-2.98632 2.9855571,2.9855571 0 0 0 -2.98633,-2.98438 z m 0,1.0293 a 1.954616,1.954616 0 0 1 1.95508,1.95508 1.954616,1.954616 0 0 1 -1.95508,1.95507 1.954616,1.954616 0 0 1 -1.95508,-1.95507 1.954616,1.954616 0 0 1 1.95508,-1.95508 z"
       id="path7424-8-2-9-4-64-2"
       inkscape:connector-curvature="0" /><path
       style="display:inline;fill:#9a916c;fill-opacity:1;stroke:none;stroke-width:0.6260401;stroke-opacity:1"
       d="m 315.99739,456.31812 a 2.9855571,2.9855571 0 0 0 -2.98633,2.98438 2.9855571,2.9855571 0 0 0 2.98633,2.98632 2.9855571,2.9855571 0 0 0 2.98633,-2.98632 2.9855571,2.9855571 0 0 0 -2.98633,-2.98438 z m 0,1.0293 a 1.954616,1.954616 0 0 1 1.95508,1.95508 1.954616,1.954616 0 0 1 -1.95508,1.95507 1.954616,1.954616 0 0 1 -1.95508,-1.95507 1.954616,1.954616 0 0 1 1.95508,-1.95508 z"
       id="path7424-8-2-9-4-64-1-2"
       inkscape:connector-curvature="0" /><path
       style="display:inline;fill:#9a916c;fill-opacity:1;stroke:none;stroke-width:0.6260401;stroke-opacity:1"
       d="m 324.94495,456.29907 a 2.9855571,2.9855571 0 0 0 -2.98633,2.98438 2.9855571,2.9855571 0 0 0 2.98633,2.98632 2.9855571,2.9855571 0 0 0 2.98633,-2.98632 2.9855571,2.9855571 0 0 0 -2.98633,-2.98438 z m 0,1.0293 a 1.954616,1.954616 0 0 1 1.95508,1.95508 1.954616,1.954616 0 0 1 -1.95508,1.95507 1.954616,1.954616 0 0 1 -1.95508,-1.95507 1.954616,1.954616 0 0 1 1.95508,-1.95508 z"
       id="path7424-8-2-9-4-64-8"
       inkscape:connector-curvature="0" /><path
       style="display:inline;fill:#9a916c;fill-opacity:1;stroke:none;stroke-width:0.6260401;stroke-opacity:1"
       d="m 334.03744,456.30686 a 2.9855571,2.9855571 0 0 0 -2.98633,2.98438 2.9855571,2.9855571 0 0 0 2.98633,2.98632 2.9855571,2.9855571 0 0 0 2.98633,-2.98632 2.9855571,2.9855571 0 0 0 -2.98633,-2.98438 z m 0,1.0293 a 1.954616,1.954616 0 0 1 1.95508,1.95508 1.954616,1.954616 0 0 1 -1.95508,1.95507 1.954616,1.954616 0 0 1 -1.95508,-1.95507 1.954616,1.954616 0 0 1 1.95508,-1.95508 z"
       id="path7424-8-2-9-4-64-1-8"
       inkscape:connector-curvature="0" /></g><g
     inkscape:groupmode="layer"
     id="layer6"
     inkscape:label="text"
     transform="translate(-270.47964,-454.45019)"
     style="display:inline;opacity:1"><text
       xml:space="preserve"
       style="font-style:normal;font-variant:normal;font-weight:normal;font-stretch:normal;font-size:3.52639985px;line-height:25px;font-family:OCRA;-inkscape-font-specification:OCRA;font-variant-ligatures:normal;font-variant-caps:normal;font-variant-numeric:normal;font-feature-settings:normal;text-align:start;letter-spacing:0px;word-spacing:0px;writing-mode:lr-tb;text-anchor:start;fill:#000000;fill-opacity:1;stroke:none"
       x="455.875"
       y="412.76501"
       id="text6583"><tspan
         sodipodi:role="line"
         id="tspan6581"
         x="455.875"
         y="426.32294" /></text>
<text
       xml:space="preserve"
       style="font-style:normal;font-variant:normal;font-weight:bold;font-stretch:normal;font-size:4.20727348px;line-height:27.24697113px;font-family:'Droid Sans';-inkscape-font-specification:'Droid Sans, Bold';font-variant-ligatures:normal;font-variant-caps:normal;font-variant-numeric:normal;font-feature-settings:normal;text-align:start;letter-spacing:0px;word-spacing:0px;writing-mode:lr-tb;text-anchor:start;fill:#000000;fill-opacity:1;stroke:none;stroke-width:1.08987868"
       x="462.83551"
       y="-332.67166"
       id="text6380-7-6-77-3-9"
       transform="rotate(90)"><tspan
         sodipodi:role="line"
         id="tspan6378-1-0-6-3-2"
         x="462.83551"
         y="-332.67166"
         style="font-style:normal;font-variant:normal;font-weight:bold;font-stretch:normal;font-size:4.20727348px;font-family:'Droid Sans';-inkscape-font-specification:'Droid Sans, Bold';font-variant-ligatures:normal;font-variant-caps:normal;font-variant-numeric:normal;font-feature-settings:normal;text-align:start;writing-mode:lr-tb;text-anchor:start;fill:#ffffff;stroke-width:1.08987868">GND</tspan></text>
<path
       style="display:inline;fill:#9a916c;fill-opacity:1;stroke:none;stroke-width:1.26546705;stroke-opacity:1"
       d="m 278.88058,560.84311 a 6.034955,6.034955 0 0 0 -6.03515,6.03321 6.034955,6.034955 0 0 0 6.03515,6.03515 6.034955,6.034955 0 0 0 6.03516,-6.03515 6.034955,6.034955 0 0 0 -6.03516,-6.03321 z m 0,1.25391 a 4.7807221,4.7807221 0 0 1 4.7793,4.7793 4.7807221,4.7807221 0 0 1 -4.7793,4.78125 4.7807221,4.7807221 0 0 1 -4.78125,-4.78125 4.7807221,4.7807221 0 0 1 4.78125,-4.7793 z"
       id="path7424-8-2-9-6-1-5"
       inkscape:connector-curvature="0" /><text
       xml:space="preserve"
       style="font-style:normal;font-variant:normal;font-weight:bold;font-stretch:normal;font-size:4.20727348px;line-height:27.24697113px;font-family:'Droid Sans';-inkscape-font-specification:'Droid Sans, Bold';font-variant-ligatures:normal;font-variant-caps:normal;font-variant-numeric:normal;font-feature-settings:normal;text-align:start;letter-spacing:0px;word-spacing:0px;writing-mode:lr-tb;text-anchor:start;display:inline;opacity:1;fill:#000000;fill-opacity:1;stroke:none;stroke-width:1.08987868"
       x="462.83551"
       y="-323.69266"
       id="text6380-7-6-77-3-9-9"
       transform="rotate(90)"><tspan
         sodipodi:role="line"
         id="tspan6378-1-0-6-3-2-2"
         x="462.83551"
         y="-323.69266"
         style="font-style:normal;font-variant:normal;font-weight:bold;font-stretch:normal;font-size:4.20727348px;font-family:'Droid Sans';-inkscape-font-specification:'Droid Sans, Bold';font-variant-ligatures:normal;font-variant-caps:normal;font-variant-numeric:normal;font-feature-settings:normal;text-align:start;writing-mode:lr-tb;text-anchor:start;fill:#ffffff;stroke-width:1.08987868">+5V</tspan></text>
<text
       xml:space="preserve"
       style="font-style:normal;font-variant:normal;font-weight:bold;font-stretch:normal;font-size:4.20727348px;line-height:27.24697113px;font-family:'Droid Sans';-inkscape-font-specification:'Droid Sans, Bold';font-variant-ligatures:normal;font-variant-caps:normal;font-variant-numeric:normal;font-feature-settings:normal;text-align:start;letter-spacing:0px;word-spacing:0px;writing-mode:lr-tb;text-anchor:start;display:inline;opacity:1;fill:#000000;fill-opacity:1;stroke:none;stroke-width:1.08987868"
       x="463.04007"
       y="-314.65649"
       id="text6380-7-6-77-3-9-2"
       transform="rotate(90)"><tspan
         sodipodi:role="line"
         id="tspan6378-1-0-6-3-2-5"
         x="463.04007"
         y="-314.65649"
         style="font-style:normal;font-variant:normal;font-weight:bold;font-stretch:normal;font-size:4.20727348px;font-family:'Droid Sans';-inkscape-font-specification:'Droid Sans, Bold';font-variant-ligatures:normal;font-variant-caps:normal;font-variant-numeric:normal;font-feature-settings:normal;text-align:start;writing-mode:lr-tb;text-anchor:start;fill:#ffffff;stroke-width:1.08987868">VRx</tspan></text>
<text
       xml:space="preserve"
       style="font-style:normal;font-variant:normal;font-weight:bold;font-stretch:normal;font-size:4.20727348px;line-height:27.24697113px;font-family:'Droid Sans';-inkscape-font-specification:'Droid Sans, Bold';font-variant-ligatures:normal;font-variant-caps:normal;font-variant-numeric:normal;font-feature-settings:normal;text-align:start;letter-spacing:0px;word-spacing:0px;writing-mode:lr-tb;text-anchor:start;display:inline;opacity:1;fill:#000000;fill-opacity:1;stroke:none;stroke-width:1.08987868"
       x="462.89554"
       y="-305.45117"
       id="text6380-7-6-77-3-9-8"
       transform="rotate(90)"><tspan
         sodipodi:role="line"
         id="tspan6378-1-0-6-3-2-3"
         x="462.89554"
         y="-305.45117"
         style="font-style:normal;font-variant:normal;font-weight:bold;font-stretch:normal;font-size:4.20727348px;font-family:'Droid Sans';-inkscape-font-specification:'Droid Sans, Bold';font-variant-ligatures:normal;font-variant-caps:normal;font-variant-numeric:normal;font-feature-settings:normal;text-align:start;writing-mode:lr-tb;text-anchor:start;fill:#ffffff;stroke-width:1.08987868">VRy</tspan></text>
<text
       xml:space="preserve"
       style="font-style:normal;font-variant:normal;font-weight:bold;font-stretch:normal;font-size:4.20727348px;line-height:27.24697113px;font-family:'Droid Sans';-inkscape-font-specification:'Droid Sans, Bold';font-variant-ligatures:normal;font-variant-caps:normal;font-variant-numeric:normal;font-feature-settings:normal;text-align:start;letter-spacing:0px;word-spacing:0px;writing-mode:lr-tb;text-anchor:start;display:inline;opacity:1;fill:#000000;fill-opacity:1;stroke:none;stroke-width:1.08987868"
       x="463.02811"
       y="-296.12619"
       id="text6380-7-6-77-3-9-26"
       transform="rotate(90)"><tspan
         sodipodi:role="line"
         id="tspan6378-1-0-6-3-2-7"
         x="463.02811"
         y="-296.12619"
         style="font-style:normal;font-variant:normal;font-weight:bold;font-stretch:normal;font-size:4.20727348px;font-family:'Droid Sans';-inkscape-font-specification:'Droid Sans, Bold';font-variant-ligatures:normal;font-variant-caps:normal;font-variant-numeric:normal;font-feature-settings:normal;text-align:start;writing-mode:lr-tb;text-anchor:start;fill:#ffffff;stroke-width:1.08987868">SW</tspan></text>
</g></svg>